<?xml version="1.0" encoding="utf-8"?>
<!-- Generator: Adobe Illustrator 16.0.0, SVG Export Plug-In . SVG Version: 6.00 Build 0)  -->
<!DOCTYPE svg PUBLIC "-//W3C//DTD SVG 1.1//EN" "http://www.w3.org/Graphics/SVG/1.1/DTD/svg11.dtd">
<svg version="1.1" id="Layer_1" xmlns="http://www.w3.org/2000/svg" xmlns:xlink="http://www.w3.org/1999/xlink" x="0px" y="0px"
	 width="400px" height="400px" viewBox="0 0 400 400" enable-background="new 0 0 400 400" xml:space="preserve">
<rect x="449.404" y="63.934" fill="#38A8DB" width="126.596" height="126.596"/>
<rect x="447.794" y="252.934" fill="#424546" width="126.596" height="126.596"/>
<path fill-rule="evenodd" clip-rule="evenodd" fill="#424546" d="M285.014,237.947c-2.018-2.48,0.229-7.825,5.766-4.254
	c7.678,4.952,13.455,11.778,24.791,14.72c3.305,0.857,7.885,1.766,11.204,1.867c4.387,0.135,8.402-0.58,12.518,0.826
	c24.479,8.369,17.993,17.506,11.295,13.561c-3.007-1.771-4.818-3.279-8.251-4.994c-11.572-5.779-23.596,0.945-41.871-10.801
	c-3.088-1.984-4.821-3.244-7.892-5.297C292.201,243.325,285.031,237.97,285.014,237.947L285.014,237.947z"/>
<path fill-rule="evenodd" clip-rule="evenodd" fill="#424546" d="M285.655,127.971c0,3.621-1.888,3.743-5.062,2.77
	c-1.816-3.08-1.207-3.177,1.235-5.188C284.001,125.769,285.655,125.73,285.655,127.971L285.655,127.971z"/>
<path fill="#38A8DB" d="M213.105,107.651h42.115c1.337,0,2.556,0.55,3.442,1.436l0.005-0.003c0.884,0.883,1.432,2.104,1.432,3.448
	v93.51c0,1.344-0.548,2.563-1.432,3.447l-0.005-0.004c-0.887,0.887-2.105,1.437-3.442,1.437H102.039
	c-1.337,0-2.557-0.55-3.444-1.437l-0.003,0.004c-0.884-0.884-1.432-2.104-1.432-3.447v-93.51c0-1.344,0.548-2.564,1.432-3.448
	l0.003,0.003c0.887-0.886,2.106-1.436,3.444-1.436h112.834v3.395H102.039c-0.411,0-0.782,0.165-1.047,0.431v0.006
	c-0.27,0.27-0.438,0.641-0.438,1.048v93.51c0,0.407,0.168,0.777,0.438,1.047v0.006c0.266,0.268,0.637,0.432,1.047,0.432h153.182
	c0.409,0,0.781-0.164,1.047-0.432v-0.006c0.27-0.27,0.438-0.64,0.438-1.047v-93.51c0-0.407-0.168-0.778-0.438-1.048v-0.006
	c-0.266-0.266-0.638-0.431-1.047-0.431h-42.115V107.651z"/>
<rect x="107.572" y="170.868" fill="#38A8DB" width="64.974" height="3.395"/>
<rect x="107.572" y="157.166" fill="#38A8DB" width="54.809" height="3.394"/>
<rect x="107.572" y="143.463" fill="#38A8DB" width="44.09" height="3.395"/>
<rect x="107.571" y="127.943" fill="#38A8DB" width="136.99" height="3.395"/>
<path fill-rule="evenodd" clip-rule="evenodd" fill="#424546" d="M289.857,196.952c0-4.915-2.236-5.725-6.248-7.215
	c-3.49-1.295-6.139-3.599-8.508-3.425c0.072,11.656-0.433,24.265,0.34,35.608C292.162,222.927,289.857,206.083,289.857,196.952
	L289.857,196.952z M289.857,112.469c0-8.475-5.773-13.841-14.578-13.315l-0.071,47.089l14.146,7.001
	C290.43,143.95,289.857,122.946,289.857,112.469L289.857,112.469z M268.426,103.167c0-3.872-0.309-4.199-4.421-4.199
	c-21.353-0.005-165.845-0.893-174.371,0.386c-0.804,9.369-0.847,114.977,0.177,122.411l178.022-0.209
	c1.271-9.549,0.593-32.315,0.593-43.205c0-4.811-8.345-8.646-9.816-17.194c-1.98-11.498,9.816-11.864,9.816-16.91V103.167
	L268.426,103.167z M82.649,103.167c0-4.274-0.142-4.199-4.635-4.199c-11.021,0-25.628-2.368-25.628,13.5
	c0,37.442-1.091,26.008,7.804,26.008c23.787,0,11.531,41.536,11.531,56.151c0,8.955,0.82,8.475,3.965,16.285
	c4.072,10.115,2.234,10.275,6.593,10.799C83.404,210.06,82.649,122.134,82.649,103.167L82.649,103.167z M45.66,114.794
	c0-11.954,5.697-22.553,18.986-22.553h211.758c24.636,0,19.515,25.501,20.109,33.497c0.258,3.469,0.039,2.758,2.891,4.029
	c10.953,4.884,32.355,12.208,39.928,19.747l27.402,33.062c13.883,16.634,31.953,19.209,30.885,25.04
	c-0.619,3.376-0.01,0.637-1.143,1.797c-3.504,2.912-24.336-12.034-27.877-14.742c-3.246-2.482-15.488-18.016-20.049-23.359
	c-7.047-8.256-12.602-18.059-21.227-22.168c-4.345-2.07-27.59-12.386-30.617-12.508l-0.123,2.963
	c-0.379,18.036-2.201,21.311,7.951,30.76c2.837,2.639,7.98,5.331,12.188,7.201c4.431,1.971,12.281,4.319,13.104,6.516
	c3.021,8.069-9.497,2.468-11.789,1.467c-12.887-5.632-15.003-6.42-22.904-15.843c-22.456-26.78-34.159-15.119-28.288-5.834
	c1.348,2.131,2.992,3.198,4.678,5.436c4.281,5.689,8.244,11.91,14.43,14.226c16.871,6.318,14.639,20.055,25.545,32.57
	c14.863,17.055,37.688,5.182,37.451,13.361c-0.102,3.498-5.211,3.59-8.224,3.59c-38.759,0-37.091-23.155-44.142-26.205
	c-0.117,13.24-7.592,21.999-20.967,21.999l-174.953,0.127c-1.883,3.339-3.043,5.556-5.317,8.542
	c-4.827,6.338-0.017,12.363-7.227,32.33c-5.2,14.4-7.73,17.785-11.833,27.697c-1.595,3.855-1.462,6.33-2.901,8.791
	c-0.067,0.114-0.328,0.58-0.379,0.461s-0.251,0.314-0.404,0.441c-9.002,3.723-2.211-13.291-0.698-16.398
	c18.652-38.314,12.822-46.947,15.583-53.453c1.394-3.283,4.445-5.113,4.438-8.662l-10.214,0.535
	c-0.38,3.624,0.014,10.225-0.415,15.008c-0.795,8.893-6.005,33.697-14.346,35.695l-2.797-2.309
	c0.303-6.096,10.928-16.922,10.928-38.838c0-24.031-10.087-26.831-10.087-40.305c0-11.584,1.661-13.943,2.523-23.928
	c0.614-7.117,0.429-13.686-0.116-21.05c-0.81-10.941-8.708-9.133-11.737-6.074c-8.301,8.384-3.349,32.859-4.817,43.246
	c-0.656,4.643-2.344,10.105-3.221,14.586c-1.033,5.275-2.716,10.242-3.536,15.092c-0.48,2.84-1.644,13.188-2.627,15.395l-4.476-0.18
	c-4.843-10.74,8.188-36.766,7.726-53.376c-0.271-9.717-1.539-15.802,0.373-25.99c0.816-4.351,1.279-21.052,0.027-24.774
	c-4.911,0.035-11.864,4.49-14.639,11.766c-3.925,10.289-21.379,53.82-21.379,58.388c0,5.564,10.049,47.947,11.996,57.705
	c5.06,25.354,3.554,16.498,3.554,43.832c0,2.506-0.829,3.072-1.644,4.475c-6.682,0.545-5.103-4.268-5.084-10.672
	c0.017-5.425,0.03-10.861,0.022-16.285C17.923,268.86,2.024,209.47,2.34,200.874c0.208-5.634,6.076-18.646,8.135-24.194
	c2.79-7.513,6.104-15.192,8.84-22.93c4.677-13.23,6.587-21.935,20.263-27.784C46.655,122.939,45.66,125.125,45.66,114.794
	L45.66,114.794z"/>
<g>
	<g>
		<rect x="107.09" y="188.131" fill="#38A8DB" width="0.629" height="13.29"/>
		<rect x="108.181" y="188.131" fill="#38A8DB" width="0.314" height="13.29"/>
		<rect x="109.017" y="188.131" fill="#38A8DB" width="0.433" height="13.29"/>
		<rect x="109.828" y="188.131" fill="#38A8DB" width="0.216" height="13.29"/>
		<rect x="110.542" y="188.131" fill="#38A8DB" width="0.826" height="13.29"/>
		<rect x="147.331" y="188.131" fill="#38A8DB" width="0.629" height="13.29"/>
		<rect x="149.114" y="188.131" fill="#38A8DB" width="0.315" height="13.29"/>
		<rect x="149.95" y="188.131" fill="#38A8DB" width="0.433" height="13.29"/>
		<rect x="150.761" y="188.131" fill="#38A8DB" width="0.216" height="13.29"/>
		<rect x="151.477" y="188.131" fill="#38A8DB" width="0.826" height="13.29"/>
		<rect x="111.954" y="188.131" fill="#38A8DB" width="0.511" height="13.29"/>
		<rect x="112.784" y="188.131" fill="#38A8DB" width="0.256" height="13.29"/>
		<rect x="114.656" y="188.131" fill="#38A8DB" width="0.182" height="13.29"/>
		<rect x="113.664" y="188.131" fill="#38A8DB" width="0.447" height="13.29"/>
		<rect x="115.175" y="188.131" fill="#38A8DB" width="0.629" height="13.29"/>
		<rect x="125.052" y="188.131" fill="#38A8DB" width="0.255" height="13.29"/>
		<rect x="127.499" y="188.131" fill="#38A8DB" width="0.182" height="13.29"/>
		<rect x="125.932" y="188.131" fill="#38A8DB" width="0.748" height="13.29"/>
		<rect x="128.017" y="188.131" fill="#38A8DB" width="0.63" height="13.29"/>
		<rect x="116.729" y="188.131" fill="#38A8DB" width="0.314" height="13.29"/>
		<rect x="118.026" y="188.131" fill="#38A8DB" width="0.433" height="13.29"/>
		<rect x="118.837" y="188.131" fill="#38A8DB" width="0.216" height="13.29"/>
		<rect x="119.553" y="188.131" fill="#38A8DB" width="0.53" height="13.29"/>
		<rect x="120.57" y="188.131" fill="#38A8DB" width="0.904" height="13.29"/>
		<rect x="121.794" y="188.131" fill="#38A8DB" width="0.255" height="13.29"/>
		<rect x="129.51" y="188.131" fill="#38A8DB" width="0.433" height="13.29"/>
		<rect x="130.322" y="188.131" fill="#38A8DB" width="0.216" height="13.29"/>
		<rect x="131.036" y="188.131" fill="#38A8DB" width="0.531" height="13.29"/>
		<rect x="132.054" y="188.131" fill="#38A8DB" width="0.904" height="13.29"/>
		<rect x="133.277" y="188.131" fill="#38A8DB" width="0.256" height="13.29"/>
		<rect x="123.897" y="188.131" fill="#38A8DB" width="0.182" height="13.29"/>
		<rect x="123.136" y="188.131" fill="#38A8DB" width="0.447" height="13.29"/>
		<rect x="238.769" y="188.131" fill="#38A8DB" width="0.257" height="13.29"/>
		<rect x="240.643" y="188.131" fill="#38A8DB" width="0.182" height="13.29"/>
		<rect x="239.65" y="188.131" fill="#38A8DB" width="0.447" height="13.29"/>
		<rect x="241.161" y="188.131" fill="#38A8DB" width="0.628" height="13.29"/>
		<rect x="242.715" y="188.131" fill="#38A8DB" width="0.313" height="13.29"/>
		<rect x="244.011" y="188.131" fill="#38A8DB" width="0.434" height="13.29"/>
		<rect x="244.823" y="188.131" fill="#38A8DB" width="0.216" height="13.29"/>
		<rect x="245.538" y="188.131" fill="#38A8DB" width="0.53" height="13.29"/>
		<rect x="246.555" y="188.131" fill="#38A8DB" width="0.905" height="13.29"/>
		<rect x="247.779" y="188.131" fill="#38A8DB" width="0.256" height="13.29"/>
		<rect x="249.883" y="188.131" fill="#38A8DB" width="0.183" height="13.29"/>
		<rect x="249.121" y="188.131" fill="#38A8DB" width="0.447" height="13.29"/>
		<rect x="153.336" y="188.131" fill="#38A8DB" width="0.315" height="13.29"/>
		<rect x="154.635" y="188.131" fill="#38A8DB" width="0.432" height="13.29"/>
		<rect x="155.445" y="188.131" fill="#38A8DB" width="0.216" height="13.29"/>
		<rect x="156.16" y="188.131" fill="#38A8DB" width="0.531" height="13.29"/>
		<rect x="157.178" y="188.131" fill="#38A8DB" width="0.904" height="13.29"/>
		<rect x="158.402" y="188.131" fill="#38A8DB" width="0.254" height="13.29"/>
		<rect x="138.964" y="188.131" fill="#38A8DB" width="0.255" height="13.29"/>
		<rect x="136.591" y="188.131" fill="#38A8DB" width="0.182" height="13.29"/>
		<rect x="137.592" y="188.131" fill="#38A8DB" width="0.747" height="13.29"/>
		<rect x="135.625" y="188.131" fill="#38A8DB" width="0.629" height="13.29"/>
		<rect x="145.813" y="188.131" fill="#38A8DB" width="0.433" height="13.29"/>
		<rect x="145.218" y="188.131" fill="#38A8DB" width="0.216" height="13.29"/>
		<rect x="144.188" y="188.131" fill="#38A8DB" width="0.531" height="13.29"/>
		<rect x="142.798" y="188.131" fill="#38A8DB" width="0.904" height="13.29"/>
		<rect x="142.223" y="188.131" fill="#38A8DB" width="0.255" height="13.29"/>
		<rect x="134.328" y="188.131" fill="#38A8DB" width="0.433" height="13.29"/>
		<rect x="140.192" y="188.131" fill="#38A8DB" width="0.182" height="13.29"/>
		<rect x="140.689" y="188.131" fill="#38A8DB" width="0.447" height="13.29"/>
		<rect x="167.057" y="188.131" fill="#38A8DB" width="0.255" height="13.29"/>
		<rect x="169.504" y="188.131" fill="#38A8DB" width="0.182" height="13.29"/>
		<rect x="167.937" y="188.131" fill="#38A8DB" width="0.747" height="13.29"/>
		<rect x="170.022" y="188.131" fill="#38A8DB" width="0.629" height="13.29"/>
		<rect x="160.031" y="188.131" fill="#38A8DB" width="0.433" height="13.29"/>
		<rect x="160.842" y="188.131" fill="#38A8DB" width="0.216" height="13.29"/>
		<rect x="161.557" y="188.131" fill="#38A8DB" width="0.531" height="13.29"/>
		<rect x="162.575" y="188.131" fill="#38A8DB" width="0.904" height="13.29"/>
		<rect x="163.798" y="188.131" fill="#38A8DB" width="0.255" height="13.29"/>
		<rect x="171.515" y="188.131" fill="#38A8DB" width="0.433" height="13.29"/>
		<rect x="172.326" y="188.131" fill="#38A8DB" width="0.216" height="13.29"/>
		<rect x="173.041" y="188.131" fill="#38A8DB" width="0.531" height="13.29"/>
		<rect x="174.059" y="188.131" fill="#38A8DB" width="0.904" height="13.29"/>
		<rect x="175.282" y="188.131" fill="#38A8DB" width="0.256" height="13.29"/>
		<rect x="165.901" y="188.131" fill="#38A8DB" width="0.182" height="13.29"/>
		<rect x="165.14" y="188.131" fill="#38A8DB" width="0.447" height="13.29"/>
		<rect x="180.968" y="188.131" fill="#38A8DB" width="0.255" height="13.29"/>
		<rect x="178.595" y="188.131" fill="#38A8DB" width="0.182" height="13.29"/>
		<rect x="179.597" y="188.131" fill="#38A8DB" width="0.747" height="13.29"/>
		<rect x="177.63" y="188.131" fill="#38A8DB" width="0.628" height="13.29"/>
		<rect x="187.223" y="188.131" fill="#38A8DB" width="0.216" height="13.29"/>
		<rect x="186.192" y="188.131" fill="#38A8DB" width="0.531" height="13.29"/>
		<rect x="184.803" y="188.131" fill="#38A8DB" width="0.903" height="13.29"/>
		<rect x="184.227" y="188.131" fill="#38A8DB" width="0.255" height="13.29"/>
		<rect x="176.333" y="188.131" fill="#38A8DB" width="0.433" height="13.29"/>
		<rect x="182.197" y="188.131" fill="#38A8DB" width="0.182" height="13.29"/>
		<rect x="182.694" y="188.131" fill="#38A8DB" width="0.447" height="13.29"/>
		<rect x="223.721" y="188.131" fill="#38A8DB" width="0.629" height="13.29"/>
		<rect x="222.251" y="188.131" fill="#38A8DB" width="0.314" height="13.29"/>
		<rect x="221.297" y="188.131" fill="#38A8DB" width="0.434" height="13.29"/>
		<rect x="220.702" y="188.131" fill="#38A8DB" width="0.217" height="13.29"/>
		<rect x="219.379" y="188.131" fill="#38A8DB" width="0.825" height="13.29"/>
		<rect x="218.029" y="188.131" fill="#38A8DB" width="0.313" height="13.29"/>
		<rect x="216.612" y="188.131" fill="#38A8DB" width="0.434" height="13.29"/>
		<rect x="216.02" y="188.131" fill="#38A8DB" width="0.216" height="13.29"/>
		<rect x="214.988" y="188.131" fill="#38A8DB" width="0.532" height="13.29"/>
		<rect x="213.598" y="188.131" fill="#38A8DB" width="0.904" height="13.29"/>
		<rect x="213.022" y="188.131" fill="#38A8DB" width="0.256" height="13.29"/>
		<rect x="232.461" y="188.131" fill="#38A8DB" width="0.256" height="13.29"/>
		<rect x="234.907" y="188.131" fill="#38A8DB" width="0.182" height="13.29"/>
		<rect x="233.342" y="188.131" fill="#38A8DB" width="0.746" height="13.29"/>
		<rect x="235.427" y="188.131" fill="#38A8DB" width="0.629" height="13.29"/>
		<rect x="225.435" y="188.131" fill="#38A8DB" width="0.433" height="13.29"/>
		<rect x="226.245" y="188.131" fill="#38A8DB" width="0.217" height="13.29"/>
		<rect x="226.961" y="188.131" fill="#38A8DB" width="0.53" height="13.29"/>
		<rect x="227.979" y="188.131" fill="#38A8DB" width="0.904" height="13.29"/>
		<rect x="229.202" y="188.131" fill="#38A8DB" width="0.255" height="13.29"/>
		<rect x="236.919" y="188.131" fill="#38A8DB" width="0.433" height="13.29"/>
		<rect x="231.307" y="188.131" fill="#38A8DB" width="0.182" height="13.29"/>
		<rect x="230.544" y="188.131" fill="#38A8DB" width="0.448" height="13.29"/>
		<rect x="204.367" y="188.131" fill="#38A8DB" width="0.256" height="13.29"/>
		<rect x="201.995" y="188.131" fill="#38A8DB" width="0.183" height="13.29"/>
		<rect x="202.996" y="188.131" fill="#38A8DB" width="0.747" height="13.29"/>
		<rect x="201.028" y="188.131" fill="#38A8DB" width="0.63" height="13.29"/>
		<rect x="211.216" y="188.131" fill="#38A8DB" width="0.434" height="13.29"/>
		<rect x="210.622" y="188.131" fill="#38A8DB" width="0.216" height="13.29"/>
		<rect x="209.592" y="188.131" fill="#38A8DB" width="0.532" height="13.29"/>
		<rect x="208.202" y="188.131" fill="#38A8DB" width="0.903" height="13.29"/>
		<rect x="207.627" y="188.131" fill="#38A8DB" width="0.255" height="13.29"/>
		<rect x="199.733" y="188.131" fill="#38A8DB" width="0.432" height="13.29"/>
		<rect x="199.138" y="188.131" fill="#38A8DB" width="0.217" height="13.29"/>
		<rect x="198.108" y="188.131" fill="#38A8DB" width="0.531" height="13.29"/>
		<rect x="196.716" y="188.131" fill="#38A8DB" width="0.905" height="13.29"/>
		<rect x="196.143" y="188.131" fill="#38A8DB" width="0.254" height="13.29"/>
		<rect x="205.596" y="188.131" fill="#38A8DB" width="0.182" height="13.29"/>
		<rect x="206.092" y="188.131" fill="#38A8DB" width="0.448" height="13.29"/>
		<rect x="190.457" y="188.131" fill="#38A8DB" width="0.255" height="13.29"/>
		<rect x="192.903" y="188.131" fill="#38A8DB" width="0.182" height="13.29"/>
		<rect x="191.335" y="188.131" fill="#38A8DB" width="0.749" height="13.29"/>
		<rect x="193.422" y="188.131" fill="#38A8DB" width="0.629" height="13.29"/>
		<rect x="194.915" y="188.131" fill="#38A8DB" width="0.433" height="13.29"/>
		<rect x="189.302" y="188.131" fill="#38A8DB" width="0.182" height="13.29"/>
		<rect x="188.54" y="188.131" fill="#38A8DB" width="0.447" height="13.29"/>
	</g>
</g>
</svg>
