<?xml version="1.0" encoding="utf-8"?>
<!-- Generator: Adobe Illustrator 16.0.0, SVG Export Plug-In . SVG Version: 6.00 Build 0)  -->
<!DOCTYPE svg PUBLIC "-//W3C//DTD SVG 1.1//EN" "http://www.w3.org/Graphics/SVG/1.1/DTD/svg11.dtd">
<svg version="1.1" id="Layer_1" xmlns="http://www.w3.org/2000/svg" xmlns:xlink="http://www.w3.org/1999/xlink" x="0px" y="0px"
	 width="400px" height="400px" viewBox="0 0 400 400" enable-background="new 0 0 400 400" xml:space="preserve">
<rect x="449.404" y="63.934" fill="#38A8DB" width="126.596" height="126.596"/>
<rect x="447.794" y="252.934" fill="#424546" width="126.596" height="126.596"/>
<path fill-rule="evenodd" clip-rule="evenodd" fill="#424546" d="M285.014,237.947c-2.018-2.48,0.229-7.825,5.766-4.254
	c7.678,4.952,13.455,11.778,24.791,14.72c3.305,0.857,7.885,1.766,11.204,1.867c4.387,0.135,8.402-0.58,12.518,0.826
	c24.479,8.369,17.993,17.506,11.295,13.561c-3.007-1.771-4.818-3.279-8.251-4.994c-11.572-5.779-23.596,0.945-41.871-10.801
	c-3.088-1.984-4.821-3.244-7.892-5.297C292.201,243.325,285.031,237.97,285.014,237.947L285.014,237.947z"/>
<path fill-rule="evenodd" clip-rule="evenodd" fill="#424546" d="M285.655,127.971c0,3.621-1.888,3.743-5.062,2.77
	c-1.816-3.08-1.207-3.177,1.235-5.188C284.001,125.769,285.655,125.73,285.655,127.971L285.655,127.971z"/>
<path fill="#38A8DB" d="M212.824,107.651h42.115c1.337,0,2.556,0.55,3.442,1.436l0.005-0.003c0.884,0.883,1.432,2.104,1.432,3.448
	v93.51c0,1.344-0.548,2.563-1.432,3.447l-0.005-0.004c-0.887,0.887-2.105,1.437-3.442,1.437H101.757
	c-1.337,0-2.557-0.55-3.444-1.437l-0.003,0.004c-0.884-0.884-1.432-2.104-1.432-3.447v-93.51c0-1.344,0.548-2.564,1.432-3.448
	l0.003,0.003c0.887-0.886,2.106-1.436,3.444-1.436h112.834v3.395H101.757c-0.411,0-0.782,0.165-1.047,0.431v0.006
	c-0.27,0.27-0.438,0.641-0.438,1.048v93.51c0,0.407,0.168,0.777,0.438,1.047v0.006c0.266,0.268,0.637,0.432,1.047,0.432h153.182
	c0.409,0,0.781-0.164,1.047-0.432v-0.006c0.27-0.27,0.438-0.64,0.438-1.047v-93.51c0-0.407-0.168-0.778-0.438-1.048v-0.006
	c-0.266-0.266-0.638-0.431-1.047-0.431h-42.115V107.651z"/>
<rect x="185.427" y="156.136" fill="#38A8DB" width="64.974" height="3.395"/>
<rect x="185.427" y="146.433" fill="#38A8DB" width="54.81" height="3.394"/>
<rect x="185.427" y="136.731" fill="#38A8DB" width="44.09" height="3.395"/>
<rect x="176.651" y="107.651" fill="#38A8DB" width="3.395" height="100.484"/>
<path fill-rule="evenodd" clip-rule="evenodd" fill="#424546" d="M289.857,196.952c0-4.915-2.236-5.725-6.248-7.215
	c-3.49-1.295-6.139-3.599-8.508-3.425c0.072,11.656-0.433,24.265,0.34,35.608C292.162,222.927,289.857,206.083,289.857,196.952
	L289.857,196.952z M289.857,112.469c0-8.475-5.773-13.841-14.578-13.315l-0.071,47.089l14.146,7.001
	C290.43,143.95,289.857,122.946,289.857,112.469L289.857,112.469z M268.426,103.167c0-3.872-0.309-4.199-4.421-4.199
	c-21.353-0.005-165.845-0.893-174.371,0.386c-0.804,9.369-0.847,114.977,0.177,122.411l178.022-0.209
	c1.271-9.549,0.593-32.315,0.593-43.205c0-4.811-8.345-8.646-9.816-17.194c-1.98-11.498,9.816-11.864,9.816-16.91V103.167
	L268.426,103.167z M82.649,103.167c0-4.274-0.142-4.199-4.635-4.199c-11.021,0-25.628-2.368-25.628,13.5
	c0,37.442-1.091,26.008,7.804,26.008c23.787,0,11.531,41.536,11.531,56.151c0,8.955,0.82,8.475,3.965,16.285
	c4.072,10.115,2.234,10.275,6.593,10.799C83.404,210.06,82.649,122.134,82.649,103.167L82.649,103.167z M45.66,114.794
	c0-11.954,5.697-22.553,18.986-22.553h211.758c24.636,0,19.515,25.501,20.109,33.497c0.258,3.469,0.039,2.758,2.891,4.029
	c10.953,4.884,32.355,12.208,39.928,19.747l27.402,33.062c13.883,16.634,31.953,19.209,30.885,25.04
	c-0.619,3.376-0.01,0.637-1.143,1.797c-3.504,2.912-24.336-12.034-27.877-14.742c-3.246-2.482-15.488-18.016-20.049-23.359
	c-7.047-8.256-12.602-18.059-21.227-22.168c-4.345-2.07-27.59-12.386-30.617-12.508l-0.123,2.963
	c-0.379,18.036-2.201,21.311,7.951,30.76c2.837,2.639,7.98,5.331,12.188,7.201c4.431,1.971,12.281,4.319,13.104,6.516
	c3.021,8.069-9.497,2.468-11.789,1.467c-12.887-5.632-15.003-6.42-22.904-15.843c-22.456-26.78-34.159-15.119-28.288-5.834
	c1.348,2.131,2.992,3.198,4.678,5.436c4.281,5.689,8.244,11.91,14.43,14.226c16.871,6.318,14.639,20.055,25.545,32.57
	c14.863,17.055,37.688,5.182,37.451,13.361c-0.102,3.498-5.211,3.59-8.224,3.59c-38.759,0-37.091-23.155-44.142-26.205
	c-0.117,13.24-7.592,21.999-20.967,21.999l-174.953,0.127c-1.883,3.339-3.043,5.556-5.317,8.542
	c-4.827,6.338-0.017,12.363-7.227,32.33c-5.2,14.4-7.73,17.785-11.833,27.697c-1.595,3.855-1.462,6.33-2.901,8.791
	c-0.067,0.114-0.328,0.58-0.379,0.461s-0.251,0.314-0.404,0.441c-9.002,3.723-2.211-13.291-0.698-16.398
	c18.652-38.314,12.822-46.947,15.583-53.453c1.394-3.283,4.445-5.113,4.438-8.662l-10.214,0.535
	c-0.38,3.624,0.014,10.225-0.415,15.008c-0.795,8.893-6.005,33.697-14.346,35.695l-2.797-2.309
	c0.303-6.096,10.928-16.922,10.928-38.838c0-24.031-10.087-26.831-10.087-40.305c0-11.584,1.661-13.943,2.523-23.928
	c0.614-7.117,0.429-13.686-0.116-21.05c-0.81-10.941-8.708-9.133-11.737-6.074c-8.301,8.384-3.349,32.859-4.817,43.246
	c-0.656,4.643-2.344,10.105-3.221,14.586c-1.033,5.275-2.716,10.242-3.536,15.092c-0.48,2.84-1.644,13.188-2.627,15.395l-4.476-0.18
	c-4.843-10.74,8.188-36.766,7.726-53.376c-0.271-9.717-1.539-15.802,0.373-25.99c0.816-4.351,1.279-21.052,0.027-24.774
	c-4.911,0.035-11.864,4.49-14.639,11.766c-3.925,10.289-21.379,53.82-21.379,58.388c0,5.564,10.049,47.947,11.996,57.705
	c5.06,25.354,3.554,16.498,3.554,43.832c0,2.506-0.829,3.072-1.644,4.475c-6.682,0.545-5.103-4.268-5.084-10.672
	c0.017-5.425,0.03-10.861,0.022-16.285C17.923,268.86,2.024,209.47,2.34,200.874c0.208-5.634,6.076-18.646,8.135-24.194
	c2.79-7.513,6.104-15.192,8.84-22.93c4.677-13.23,6.587-21.935,20.263-27.784C46.655,122.939,45.66,125.125,45.66,114.794
	L45.66,114.794z"/>
<g>
	<rect x="238.34" y="117.116" fill="#38A8DB" width="0.256" height="13.29"/>
	<rect x="240.213" y="117.116" fill="#38A8DB" width="0.182" height="13.29"/>
	<rect x="239.221" y="117.116" fill="#38A8DB" width="0.447" height="13.29"/>
	<rect x="240.732" y="117.116" fill="#38A8DB" width="0.627" height="13.29"/>
	<rect x="242.285" y="117.116" fill="#38A8DB" width="0.314" height="13.29"/>
	<rect x="243.582" y="117.116" fill="#38A8DB" width="0.434" height="13.29"/>
	<rect x="244.395" y="117.116" fill="#38A8DB" width="0.215" height="13.29"/>
	<rect x="245.109" y="117.116" fill="#38A8DB" width="0.529" height="13.29"/>
	<rect x="246.125" y="117.116" fill="#38A8DB" width="0.906" height="13.29"/>
	<rect x="247.35" y="117.116" fill="#38A8DB" width="0.256" height="13.29"/>
	<rect x="249.453" y="117.116" fill="#38A8DB" width="0.184" height="13.29"/>
	<rect x="248.691" y="117.116" fill="#38A8DB" width="0.447" height="13.29"/>
	<rect x="186.793" y="117.116" fill="#38A8DB" width="0.216" height="13.29"/>
	<rect x="185.763" y="117.116" fill="#38A8DB" width="0.531" height="13.29"/>
	<rect x="223.291" y="117.116" fill="#38A8DB" width="0.629" height="13.29"/>
	<rect x="221.822" y="117.116" fill="#38A8DB" width="0.314" height="13.29"/>
	<rect x="220.867" y="117.116" fill="#38A8DB" width="0.434" height="13.29"/>
	<rect x="220.273" y="117.116" fill="#38A8DB" width="0.217" height="13.29"/>
	<rect x="218.949" y="117.116" fill="#38A8DB" width="0.826" height="13.29"/>
	<rect x="217.6" y="117.116" fill="#38A8DB" width="0.314" height="13.29"/>
	<rect x="216.184" y="117.116" fill="#38A8DB" width="0.434" height="13.29"/>
	<rect x="215.59" y="117.116" fill="#38A8DB" width="0.217" height="13.29"/>
	<rect x="214.559" y="117.116" fill="#38A8DB" width="0.533" height="13.29"/>
	<rect x="213.168" y="117.116" fill="#38A8DB" width="0.904" height="13.29"/>
	<rect x="212.594" y="117.116" fill="#38A8DB" width="0.256" height="13.29"/>
	<rect x="232.031" y="117.116" fill="#38A8DB" width="0.256" height="13.29"/>
	<rect x="234.479" y="117.116" fill="#38A8DB" width="0.182" height="13.29"/>
	<rect x="232.912" y="117.116" fill="#38A8DB" width="0.746" height="13.29"/>
	<rect x="234.998" y="117.116" fill="#38A8DB" width="0.629" height="13.29"/>
	<rect x="225.006" y="117.116" fill="#38A8DB" width="0.432" height="13.29"/>
	<rect x="225.816" y="117.116" fill="#38A8DB" width="0.217" height="13.29"/>
	<rect x="226.531" y="117.116" fill="#38A8DB" width="0.531" height="13.29"/>
	<rect x="227.549" y="117.116" fill="#38A8DB" width="0.904" height="13.29"/>
	<rect x="228.773" y="117.116" fill="#38A8DB" width="0.254" height="13.29"/>
	<rect x="236.49" y="117.116" fill="#38A8DB" width="0.432" height="13.29"/>
	<rect x="230.877" y="117.116" fill="#38A8DB" width="0.182" height="13.29"/>
	<rect x="230.115" y="117.116" fill="#38A8DB" width="0.447" height="13.29"/>
	<rect x="203.938" y="117.116" fill="#38A8DB" width="0.256" height="13.29"/>
	<rect x="201.566" y="117.116" fill="#38A8DB" width="0.182" height="13.29"/>
	<rect x="202.566" y="117.116" fill="#38A8DB" width="0.748" height="13.29"/>
	<rect x="200.599" y="117.116" fill="#38A8DB" width="0.629" height="13.29"/>
	<rect x="210.787" y="117.116" fill="#38A8DB" width="0.434" height="13.29"/>
	<rect x="210.193" y="117.116" fill="#38A8DB" width="0.215" height="13.29"/>
	<rect x="209.162" y="117.116" fill="#38A8DB" width="0.533" height="13.29"/>
	<rect x="207.773" y="117.116" fill="#38A8DB" width="0.902" height="13.29"/>
	<rect x="207.197" y="117.116" fill="#38A8DB" width="0.256" height="13.29"/>
	<rect x="199.304" y="117.116" fill="#38A8DB" width="0.432" height="13.29"/>
	<rect x="198.708" y="117.116" fill="#38A8DB" width="0.217" height="13.29"/>
	<rect x="197.679" y="117.116" fill="#38A8DB" width="0.531" height="13.29"/>
	<rect x="196.287" y="117.116" fill="#38A8DB" width="0.905" height="13.29"/>
	<rect x="195.714" y="117.116" fill="#38A8DB" width="0.254" height="13.29"/>
	<rect x="205.166" y="117.116" fill="#38A8DB" width="0.182" height="13.29"/>
	<rect x="205.662" y="117.116" fill="#38A8DB" width="0.449" height="13.29"/>
	<rect x="190.027" y="117.116" fill="#38A8DB" width="0.255" height="13.29"/>
	<rect x="192.474" y="117.116" fill="#38A8DB" width="0.182" height="13.29"/>
	<rect x="190.906" y="117.116" fill="#38A8DB" width="0.749" height="13.29"/>
	<rect x="192.993" y="117.116" fill="#38A8DB" width="0.629" height="13.29"/>
	<rect x="194.485" y="117.116" fill="#38A8DB" width="0.433" height="13.29"/>
	<rect x="188.873" y="117.116" fill="#38A8DB" width="0.182" height="13.29"/>
	<rect x="188.11" y="117.116" fill="#38A8DB" width="0.447" height="13.29"/>
</g>
<rect x="219.775" y="193.404" fill="#38A8DB" width="30.982" height="3.395"/>
<rect x="219.775" y="183.701" fill="#38A8DB" width="26.137" height="3.394"/>
<rect x="219.775" y="173.999" fill="#38A8DB" width="21.024" height="3.395"/>
<path fill="#38A8DB" d="M205.211,185.437c0.119,0,0.374,0.005,0.663,0.015c0.194,0.007,0.382,0.016,0.503,0.027
	c1.956,0.189,3.825,1.034,5.251,2.275c1.415,1.231,2.406,2.862,2.634,4.645l1.224,9.551l0.095,0.734h-0.74h-28.692h-0.74
	l0.094-0.734l1.224-9.551c0.226-1.767,1.206-3.384,2.604-4.612c1.414-1.242,3.264-2.093,5.196-2.3
	c0.131-0.014,0.323-0.025,0.524-0.033c0.266-0.011,0.506-0.017,0.645-0.017v1.307c-0.182,0-0.412,0.004-0.594,0.011
	c-0.164,0.006-0.323,0.016-0.438,0.028c-1.663,0.178-3.257,0.912-4.476,1.983c-1.17,1.028-1.988,2.361-2.171,3.796l-1.129,8.816
	h27.214l-1.129-8.816c-0.186-1.447-1.014-2.791-2.201-3.824c-1.232-1.072-2.84-1.802-4.517-1.963
	c-0.095-0.009-0.252-0.017-0.421-0.022c-0.187-0.006-0.443-0.009-0.622-0.009V185.437z"/>
<path fill="#38A8DB" d="M207.748,175.021c-0.197-0.301-0.602-0.386-0.903-0.189c-0.302,0.197-0.386,0.602-0.189,0.904
	c0.078,0.118,0.136,0.328,0.168,0.6c0.037,0.313,0.034,0.68-0.019,1.068c-0.066,0.489-0.194,0.924-0.354,1.248
	c-0.112,0.228-0.204,0.369-0.252,0.383l0.181,0.625l-0.184-0.627c-0.245,0.072-0.416,0.274-0.459,0.509
	c-0.342,1.433-1.051,2.666-1.992,3.533c-0.899,0.829-2.014,1.32-3.215,1.32c-1.203,0-2.317-0.491-3.217-1.321
	c-0.948-0.874-1.661-2.119-1.999-3.566l-0.636,0.148l0.636-0.148c-0.056-0.238-0.235-0.416-0.455-0.479
	c-0.057-0.036-0.145-0.174-0.249-0.385c-0.158-0.322-0.285-0.754-0.352-1.241c-0.066-0.487-0.057-0.935,0.011-1.282
	c0.046-0.229,0.087-0.372,0.117-0.388c0.315-0.172,0.432-0.567,0.26-0.883c-0.172-0.315-0.568-0.432-0.883-0.26
	c-0.386,0.211-0.654,0.675-0.775,1.281c-0.094,0.475-0.108,1.071-0.021,1.706c0.085,0.625,0.258,1.197,0.475,1.639
	c0.184,0.374,0.414,0.672,0.67,0.865c0.422,1.587,1.242,2.962,2.317,3.952c1.137,1.048,2.556,1.669,4.1,1.669
	c1.542,0,2.962-0.621,4.098-1.667c1.073-0.989,1.893-2.361,2.315-3.944c0.26-0.19,0.491-0.488,0.677-0.863
	c0.219-0.442,0.392-1.018,0.477-1.651c0.067-0.503,0.072-0.98,0.024-1.389C208.064,175.715,207.935,175.309,207.748,175.021z"/>
<path fill="#38A8DB" d="M193.447,175.333c0.094,0.346,0.453,0.551,0.798,0.457c0.347-0.095,0.551-0.452,0.458-0.799
	c-0.06-0.216-0.124-0.396-0.193-0.59c-0.347-0.972-0.862-2.415,0.961-3.474c0.829-0.482,1.134-1.09,1.417-1.652
	c0.17-0.341,0.328-0.655,0.629-0.797c1.026-0.485,2.646-0.452,4.23-0.098c1.699,0.38,3.315,1.119,4.096,1.977
	c0.466,0.512,0.805,1.173,0.939,2.01c0.126,0.783,0.075,1.726-0.213,2.852c-0.089,0.349,0.122,0.704,0.473,0.793
	c0.349,0.089,0.704-0.123,0.793-0.472c0.333-1.302,0.387-2.421,0.233-3.377c-0.179-1.112-0.635-1.995-1.261-2.684
	c-0.957-1.052-2.839-1.937-4.78-2.37c-1.837-0.411-3.766-0.426-5.067,0.189c-0.704,0.333-0.959,0.842-1.236,1.395
	c-0.197,0.393-0.411,0.818-0.907,1.106c-2.763,1.605-2.031,3.658-1.538,5.04C193.352,175.042,193.418,175.227,193.447,175.333z"/>
<path fill="#38A8DB" d="M193.516,174.826c-0.186,0.309-0.086,0.709,0.222,0.896s0.709,0.086,0.896-0.222
	c0.005-0.008,1.727-2.845,2.515-3.29c0.007-0.003-0.015-0.023-0.006-0.015c0.345,0.311,0.908,0.817,2.609,0.935
	c0.493,0.034,1.076,0.034,1.689,0.034c2.284-0.001,5.028-0.002,5.103,2.224c0.012,0.359,0.312,0.642,0.671,0.63
	c0.359-0.012,0.642-0.312,0.631-0.671c-0.118-3.487-3.548-3.485-6.404-3.484c-0.568,0-1.11,0-1.603-0.034
	c-1.248-0.087-1.605-0.408-1.823-0.604c-0.454-0.409-0.681-0.613-1.504-0.148C195.42,171.692,193.521,174.817,193.516,174.826z"/>
<path fill="#38A8DB" d="M199.679,202.323c-1.298-1.896-2.519-3.779-3.465-6.265c-0.945-2.479-1.608-5.542-1.789-9.783l1.301-0.051
	c0.173,4.076,0.806,7.006,1.706,9.371c0.899,2.357,2.073,4.168,3.323,5.994L199.679,202.323z"/>
<path fill="#38A8DB" d="M196.952,185.077l-0.968,1.697l2.13,2.968l1.27-2.157L196.952,185.077L196.952,185.077z M194.645,186.492
	l1.605-2.812l0.43-0.754l0.603,0.621l3.38,3.485l0.345,0.357l-0.251,0.427l-2.027,3.446l-0.508,0.862l-0.582-0.811l-2.957-4.119
	l-0.244-0.341L194.645,186.492z"/>
<path fill="#38A8DB" d="M204.648,183.68l1.605,2.812l0.206,0.361l-0.245,0.341l-2.957,4.119l-0.582,0.811l-0.507-0.862l-2.028-3.446
	l-0.251-0.427l0.346-0.357l3.379-3.485l0.603-0.621L204.648,183.68L204.648,183.68z M204.915,186.774l-0.969-1.697l-2.431,2.508
	l1.269,2.157L204.915,186.774z"/>
<path fill="#38A8DB" d="M202.577,190.495l-0.675,0.842l0.859,2.72l0.025,0.253l-0.579,6.524l-1.296-0.112l0.567-6.39l-0.926-2.933
	l-0.105-0.331l0.22-0.273l0.894-1.117L202.577,190.495L202.577,190.495z M198.661,200.738l-0.628-6.398l0.025-0.252l0.887-2.925
	l-0.535-0.668l1.015-0.816l0.75,0.936l0.215,0.268l-0.1,0.329l-0.949,3.129l0.616,6.271L198.661,200.738z"/>
<path fill="#38A8DB" d="M200.205,201.589c1.25-1.824,2.396-3.633,3.267-5.988c0.876-2.366,1.484-5.3,1.657-9.379l1.301,0.051
	c-0.18,4.238-0.815,7.299-1.732,9.778c-0.921,2.489-2.116,4.376-3.415,6.273L200.205,201.589z"/>
<path fill="#38A8DB" d="M192.116,196.201c0.193-0.303,0.104-0.705-0.199-0.898s-0.705-0.104-0.898,0.199
	c-0.002,0.005-1.12,1.686-0.578,6.547c0.039,0.357,0.362,0.616,0.719,0.577c0.358-0.04,0.616-0.362,0.577-0.72
	C191.246,197.501,192.114,196.205,192.116,196.201z"/>
<path fill="#38A8DB" d="M209.969,195.501c-0.193-0.302-0.595-0.392-0.897-0.199c-0.304,0.193-0.393,0.595-0.199,0.898
	c0.002,0.004,0.87,1.301,0.38,5.706c-0.04,0.357,0.219,0.68,0.576,0.72c0.358,0.039,0.68-0.22,0.719-0.577
	C211.089,197.188,209.972,195.507,209.969,195.501z"/>
</svg>
