<?xml version="1.0" encoding="utf-8"?>
<!-- Generator: Adobe Illustrator 16.0.0, SVG Export Plug-In . SVG Version: 6.00 Build 0)  -->
<!DOCTYPE svg PUBLIC "-//W3C//DTD SVG 1.1//EN" "http://www.w3.org/Graphics/SVG/1.1/DTD/svg11.dtd">
<svg version="1.1" id="Layer_1" xmlns="http://www.w3.org/2000/svg" xmlns:xlink="http://www.w3.org/1999/xlink" x="0px" y="0px"
	 width="400px" height="400px" viewBox="0 0 400 400" enable-background="new 0 0 400 400" xml:space="preserve">
<rect x="449.404" y="63.934" fill="#38A8DB" width="126.596" height="126.596"/>
<rect x="447.794" y="252.934" fill="#424546" width="126.596" height="126.596"/>
<path fill-rule="evenodd" clip-rule="evenodd" fill="#424546" d="M285.014,237.947c-2.018-2.48,0.229-7.825,5.766-4.254
	c7.678,4.952,13.455,11.778,24.791,14.72c3.305,0.857,7.885,1.766,11.204,1.867c4.387,0.135,8.402-0.58,12.518,0.826
	c24.479,8.369,17.993,17.506,11.295,13.561c-3.007-1.771-4.818-3.279-8.251-4.994c-11.572-5.779-23.596,0.945-41.871-10.801
	c-3.088-1.984-4.821-3.244-7.892-5.297C292.201,243.325,285.031,237.97,285.014,237.947L285.014,237.947z"/>
<path fill-rule="evenodd" clip-rule="evenodd" fill="#424546" d="M285.655,127.971c0,3.621-1.888,3.743-5.062,2.77
	c-1.816-3.08-1.207-3.177,1.235-5.188C284.001,125.769,285.655,125.73,285.655,127.971L285.655,127.971z"/>
<path fill="#38A8DB" d="M213.105,107.651h42.115c1.337,0,2.556,0.55,3.442,1.436l0.005-0.003c0.884,0.883,1.432,2.104,1.432,3.448
	v93.51c0,1.344-0.548,2.563-1.432,3.447l-0.005-0.004c-0.887,0.887-2.105,1.437-3.442,1.437H102.039
	c-1.337,0-2.557-0.55-3.444-1.437l-0.003,0.004c-0.884-0.884-1.432-2.104-1.432-3.447v-93.51c0-1.344,0.548-2.564,1.432-3.448
	l0.003,0.003c0.887-0.886,2.106-1.436,3.444-1.436h112.834v3.395H102.039c-0.411,0-0.782,0.165-1.047,0.431v0.006
	c-0.27,0.27-0.438,0.641-0.438,1.048v93.51c0,0.407,0.168,0.777,0.438,1.047v0.006c0.266,0.268,0.637,0.432,1.047,0.432h153.182
	c0.409,0,0.781-0.164,1.047-0.432v-0.006c0.27-0.27,0.438-0.64,0.438-1.047v-93.51c0-0.407-0.168-0.778-0.438-1.048v-0.006
	c-0.266-0.266-0.638-0.431-1.047-0.431h-42.115V107.651z"/>
<path fill="#38A8DB" d="M228.537,162.854c0.218,0,0.682,0.009,1.208,0.026c0.354,0.013,0.694,0.029,0.915,0.049
	c3.562,0.345,6.962,1.882,9.557,4.141c2.577,2.241,4.38,5.208,4.796,8.455l2.226,17.381l0.172,1.337h-1.348h-52.222h-1.344
	l0.17-1.337l2.227-17.381c0.412-3.215,2.196-6.159,4.741-8.396c2.573-2.26,5.941-3.81,9.456-4.186
	c0.238-0.025,0.589-0.045,0.956-0.06c0.483-0.02,0.922-0.03,1.175-0.03v2.377c-0.331,0-0.75,0.006-1.083,0.022
	c-0.297,0.012-0.587,0.027-0.797,0.049c-3.025,0.325-5.927,1.661-8.146,3.61c-2.13,1.871-3.617,4.296-3.952,6.91l-2.054,16.042
	h49.529l-2.056-16.042c-0.336-2.634-1.845-5.08-4.005-6.96c-2.244-1.952-5.169-3.279-8.222-3.573
	c-0.172-0.017-0.458-0.03-0.764-0.042c-0.341-0.011-0.808-0.017-1.135-0.017V162.854z"/>
<path fill="#38A8DB" d="M233.155,143.898c-0.358-0.549-1.094-0.703-1.643-0.344c-0.55,0.359-0.703,1.095-0.345,1.644
	c0.141,0.215,0.248,0.597,0.306,1.092c0.065,0.569,0.061,1.236-0.035,1.943c-0.119,0.891-0.354,1.682-0.646,2.271
	c-0.205,0.415-0.37,0.672-0.46,0.699l0.331,1.137l-0.336-1.141c-0.444,0.13-0.754,0.499-0.834,0.926
	c-0.621,2.607-1.913,4.852-3.625,6.431c-1.638,1.508-3.665,2.402-5.853,2.402s-4.217-0.895-5.854-2.404
	c-1.727-1.59-3.022-3.856-3.638-6.49l-1.156,0.27l1.158-0.271c-0.104-0.434-0.431-0.756-0.829-0.872
	c-0.104-0.066-0.264-0.317-0.451-0.701c-0.288-0.587-0.521-1.372-0.642-2.258c-0.121-0.885-0.105-1.701,0.02-2.333
	c0.084-0.417,0.16-0.677,0.213-0.706c0.574-0.313,0.786-1.032,0.472-1.607c-0.311-0.574-1.031-0.787-1.605-0.473
	c-0.702,0.384-1.19,1.228-1.409,2.33c-0.171,0.864-0.196,1.95-0.04,3.104c0.155,1.138,0.469,2.179,0.865,2.983
	c0.335,0.68,0.752,1.224,1.218,1.575c0.771,2.888,2.262,5.391,4.218,7.195c2.068,1.905,4.651,3.035,7.462,3.035
	c2.808,0,5.392-1.129,7.459-3.033c1.953-1.8,3.444-4.297,4.214-7.179c0.474-0.347,0.895-0.889,1.23-1.571
	c0.398-0.804,0.714-1.853,0.87-3.004c0.122-0.916,0.13-1.784,0.043-2.528C233.73,145.16,233.495,144.42,233.155,143.898z"/>
<path fill="#38A8DB" d="M207.129,144.466c0.17,0.63,0.822,1.002,1.452,0.83c0.631-0.171,1.004-0.822,0.831-1.453
	c-0.108-0.394-0.225-0.721-0.352-1.076c-0.63-1.769-1.568-4.396,1.75-6.323c1.509-0.876,2.065-1.983,2.579-3.006
	c0.311-0.621,0.597-1.193,1.146-1.451c1.869-0.884,4.816-0.823,7.698-0.18c3.092,0.691,6.035,2.037,7.455,3.599
	c0.848,0.932,1.466,2.134,1.709,3.659c0.229,1.425,0.137,3.141-0.388,5.19c-0.16,0.636,0.224,1.282,0.859,1.444
	c0.636,0.162,1.283-0.223,1.444-0.859c0.606-2.37,0.704-4.406,0.425-6.147c-0.325-2.023-1.154-3.631-2.294-4.884
	c-1.742-1.916-5.169-3.524-8.7-4.314c-3.345-0.747-6.854-0.773-9.222,0.346c-1.281,0.606-1.747,1.534-2.251,2.538
	c-0.358,0.715-0.747,1.49-1.648,2.014c-5.03,2.92-3.698,6.658-2.801,9.173C206.953,143.934,207.075,144.272,207.129,144.466z"/>
<path fill="#38A8DB" d="M207.253,143.541c-0.338,0.562-0.157,1.292,0.402,1.63c0.562,0.338,1.293,0.157,1.632-0.405
	c0.009-0.014,3.144-5.178,4.577-5.987c0.012-0.006-0.026-0.041-0.011-0.027c0.628,0.565,1.652,1.488,4.748,1.703
	c0.897,0.062,1.96,0.062,3.074,0.061c4.156-0.002,9.152-0.004,9.287,4.048c0.021,0.654,0.567,1.167,1.223,1.146
	c0.653-0.021,1.166-0.568,1.146-1.221c-0.214-6.347-6.457-6.344-11.655-6.342c-1.034,0.001-2.021,0.001-2.916-0.061
	c-2.272-0.157-2.921-0.741-3.318-1.099c-0.827-0.744-1.239-1.116-2.736-0.27C210.72,137.838,207.263,143.524,207.253,143.541z"/>
<path fill="#38A8DB" d="M218.47,193.587c-2.363-3.449-4.583-6.878-6.309-11.4c-1.72-4.514-2.925-10.087-3.253-17.808l2.367-0.093
	c0.314,7.417,1.468,12.752,3.106,17.055c1.636,4.29,3.771,7.586,6.047,10.909L218.47,193.587z"/>
<path fill="#38A8DB" d="M213.507,162.2l-1.763,3.087l3.876,5.402l2.312-3.926L213.507,162.2L213.507,162.2z M209.307,164.774
	l2.923-5.118l0.782-1.373l1.099,1.13l6.149,6.345l0.63,0.647l-0.457,0.777l-3.691,6.272l-0.922,1.568l-1.06-1.476l-5.382-7.498
	l-0.446-0.62L209.307,164.774z"/>
<path fill="#38A8DB" d="M227.515,159.657l2.921,5.118l0.375,0.657l-0.443,0.62l-5.383,7.498l-1.06,1.476l-0.924-1.568l-3.689-6.272
	l-0.457-0.777l0.629-0.647l6.15-6.345l1.097-1.13L227.515,159.657L227.515,159.657z M227.999,165.287l-1.762-3.087l-4.427,4.564
	l2.312,3.926L227.999,165.287z"/>
<path fill="#38A8DB" d="M223.745,172.06l-1.228,1.533l1.563,4.95l0.047,0.461l-1.056,11.875l-2.357-0.206l1.032-11.63l-1.688-5.336
	l-0.189-0.603l0.397-0.499l1.629-2.03L223.745,172.06L223.745,172.06z M216.617,190.703l-1.143-11.645l0.046-0.459l1.615-5.324
	l-0.977-1.216l1.849-1.485l1.366,1.702l0.391,0.489l-0.183,0.598l-1.727,5.695l1.12,11.414L216.617,190.703z"/>
<path fill="#38A8DB" d="M219.429,192.25c2.272-3.318,4.359-6.612,5.946-10.897c1.593-4.308,2.699-9.646,3.015-17.071l2.367,0.093
	c-0.327,7.714-1.483,13.285-3.154,17.795c-1.676,4.532-3.851,7.966-6.216,11.418L219.429,192.25z"/>
<path fill="#38A8DB" d="M204.705,182.444c0.351-0.55,0.189-1.284-0.362-1.635c-0.551-0.351-1.282-0.189-1.636,0.362
	c-0.005,0.01-2.037,3.068-1.052,11.917c0.07,0.652,0.658,1.122,1.31,1.05c0.651-0.073,1.121-0.658,1.049-1.311
	C203.121,184.812,204.7,182.45,204.705,182.444z"/>
<path fill="#38A8DB" d="M237.197,181.171c-0.352-0.551-1.084-0.713-1.634-0.362c-0.552,0.351-0.713,1.084-0.364,1.635
	c0.006,0.005,1.586,2.368,0.692,10.383c-0.071,0.653,0.399,1.238,1.049,1.311c0.652,0.072,1.239-0.398,1.312-1.05
	C239.236,184.239,237.202,181.182,237.197,181.171z"/>
<rect x="113.572" y="191.272" fill="#38A8DB" width="64.974" height="3.395"/>
<rect x="113.572" y="177.569" fill="#38A8DB" width="64.974" height="3.395"/>
<rect x="113.572" y="163.868" fill="#38A8DB" width="64.974" height="3.395"/>
<rect x="113.572" y="150.166" fill="#38A8DB" width="54.809" height="3.394"/>
<rect x="113.572" y="136.463" fill="#38A8DB" width="44.09" height="3.395"/>
<rect x="113.571" y="120.943" fill="#38A8DB" width="136.99" height="3.395"/>
<path fill-rule="evenodd" clip-rule="evenodd" fill="#424546" d="M289.857,196.952c0-4.915-2.236-5.725-6.248-7.215
	c-3.49-1.295-6.139-3.599-8.508-3.425c0.072,11.656-0.433,24.265,0.34,35.608C292.162,222.927,289.857,206.083,289.857,196.952
	L289.857,196.952z M289.857,112.469c0-8.475-5.773-13.841-14.578-13.315l-0.071,47.089l14.146,7.001
	C290.43,143.95,289.857,122.946,289.857,112.469L289.857,112.469z M268.426,103.167c0-3.872-0.309-4.199-4.421-4.199
	c-21.353-0.005-165.845-0.893-174.371,0.386c-0.804,9.369-0.847,114.977,0.177,122.411l178.022-0.209
	c1.271-9.549,0.593-32.315,0.593-43.205c0-4.811-8.345-8.646-9.816-17.194c-1.98-11.498,9.816-11.864,9.816-16.91V103.167
	L268.426,103.167z M82.649,103.167c0-4.274-0.142-4.199-4.635-4.199c-11.021,0-25.628-2.368-25.628,13.5
	c0,37.442-1.091,26.008,7.804,26.008c23.787,0,11.531,41.536,11.531,56.151c0,8.955,0.82,8.475,3.965,16.285
	c4.072,10.115,2.234,10.275,6.593,10.799C83.404,210.06,82.649,122.134,82.649,103.167L82.649,103.167z M45.66,114.794
	c0-11.954,5.697-22.553,18.986-22.553h211.758c24.636,0,19.515,25.501,20.109,33.497c0.258,3.469,0.039,2.758,2.891,4.029
	c10.953,4.884,32.355,12.208,39.928,19.747l27.402,33.062c13.883,16.634,31.953,19.209,30.885,25.04
	c-0.619,3.376-0.01,0.637-1.143,1.797c-3.504,2.912-24.336-12.034-27.877-14.742c-3.246-2.482-15.488-18.016-20.049-23.359
	c-7.047-8.256-12.602-18.059-21.227-22.168c-4.345-2.07-27.59-12.386-30.617-12.508l-0.123,2.963
	c-0.379,18.036-2.201,21.311,7.951,30.76c2.837,2.639,7.98,5.331,12.188,7.201c4.431,1.971,12.281,4.319,13.104,6.516
	c3.021,8.069-9.497,2.468-11.789,1.467c-12.887-5.632-15.003-6.42-22.904-15.843c-22.456-26.78-34.159-15.119-28.288-5.834
	c1.348,2.131,2.992,3.198,4.678,5.436c4.281,5.689,8.244,11.91,14.43,14.226c16.871,6.318,14.639,20.055,25.545,32.57
	c14.863,17.055,37.688,5.182,37.451,13.361c-0.102,3.498-5.211,3.59-8.224,3.59c-38.759,0-37.091-23.155-44.142-26.205
	c-0.117,13.24-7.592,21.999-20.967,21.999l-174.953,0.127c-1.883,3.339-3.043,5.556-5.317,8.542
	c-4.827,6.338-0.017,12.363-7.227,32.33c-5.2,14.4-7.73,17.785-11.833,27.697c-1.595,3.855-1.462,6.33-2.901,8.791
	c-0.067,0.114-0.328,0.58-0.379,0.461s-0.251,0.314-0.404,0.441c-9.002,3.723-2.211-13.291-0.698-16.398
	c18.652-38.314,12.822-46.947,15.583-53.453c1.394-3.283,4.445-5.113,4.438-8.662l-10.214,0.535
	c-0.38,3.624,0.014,10.225-0.415,15.008c-0.795,8.893-6.005,33.697-14.346,35.695l-2.797-2.309
	c0.303-6.096,10.928-16.922,10.928-38.838c0-24.031-10.087-26.831-10.087-40.305c0-11.584,1.661-13.943,2.523-23.928
	c0.614-7.117,0.429-13.686-0.116-21.05c-0.81-10.941-8.708-9.133-11.737-6.074c-8.301,8.384-3.349,32.859-4.817,43.246
	c-0.656,4.643-2.344,10.105-3.221,14.586c-1.033,5.275-2.716,10.242-3.536,15.092c-0.48,2.84-1.644,13.188-2.627,15.395l-4.476-0.18
	c-4.843-10.74,8.188-36.766,7.726-53.376c-0.271-9.717-1.539-15.802,0.373-25.99c0.816-4.351,1.279-21.052,0.027-24.774
	c-4.911,0.035-11.864,4.49-14.639,11.766c-3.925,10.289-21.379,53.82-21.379,58.388c0,5.564,10.049,47.947,11.996,57.705
	c5.06,25.354,3.554,16.498,3.554,43.832c0,2.506-0.829,3.072-1.644,4.475c-6.682,0.545-5.103-4.268-5.084-10.672
	c0.017-5.425,0.03-10.861,0.022-16.285C17.923,268.86,2.024,209.47,2.34,200.874c0.208-5.634,6.076-18.646,8.135-24.194
	c2.79-7.513,6.104-15.192,8.84-22.93c4.677-13.23,6.587-21.935,20.263-27.784C46.655,122.939,45.66,125.125,45.66,114.794
	L45.66,114.794z"/>
</svg>
