<?xml version="1.0" encoding="utf-8"?>
<!-- Generator: Adobe Illustrator 16.0.0, SVG Export Plug-In . SVG Version: 6.00 Build 0)  -->
<!DOCTYPE svg PUBLIC "-//W3C//DTD SVG 1.1//EN" "http://www.w3.org/Graphics/SVG/1.1/DTD/svg11.dtd">
<svg version="1.1" id="Layer_1" xmlns="http://www.w3.org/2000/svg" xmlns:xlink="http://www.w3.org/1999/xlink" x="0px" y="0px"
	 width="400px" height="400px" viewBox="0 0 400 400" enable-background="new 0 0 400 400" xml:space="preserve">
<rect x="449.404" y="63.934" fill="#38A8DB" width="126.596" height="126.596"/>
<rect x="447.794" y="252.934" fill="#424546" width="126.596" height="126.596"/>
<g>
	<path fill="#38A8DB" d="M261.187,183.159c0.553,0,1.722,0.022,3.054,0.065c0.893,0.033,1.75,0.073,2.308,0.124
		c8.996,0.871,17.583,4.752,24.133,10.456c6.511,5.66,11.062,13.151,12.113,21.351l5.617,43.892l0.439,3.376h-3.408h-131.87h-3.393
		l0.429-3.376l5.624-43.892c1.041-8.118,5.545-15.552,11.972-21.201c6.498-5.706,15.003-9.621,23.878-10.57
		c0.602-0.063,1.487-0.114,2.414-0.152c1.219-0.05,2.328-0.075,2.97-0.075v6.003c-0.839,0-1.895,0.015-2.737,0.055
		c-0.75,0.031-1.482,0.068-2.013,0.124c-7.64,0.821-14.966,4.194-20.572,9.116c-5.377,4.726-9.132,10.849-9.978,17.448l-5.187,40.51
		h125.069l-5.188-40.51c-0.849-6.65-4.661-12.826-10.115-17.575c-5.667-4.928-13.056-8.279-20.765-9.021
		c-0.434-0.043-1.153-0.076-1.928-0.106c-0.858-0.028-2.042-0.043-2.866-0.043V183.159L261.187,183.159z"/>
	<path fill="#38A8DB" d="M272.847,135.291c-0.903-1.386-2.763-1.775-4.148-0.868c-1.386,0.906-1.775,2.765-0.868,4.152
		c0.355,0.542,0.627,1.507,0.77,2.757c0.168,1.437,0.158,3.121-0.089,4.906c-0.301,2.25-0.893,4.248-1.627,5.735
		c-0.519,1.048-0.938,1.696-1.164,1.766l0.838,2.871l-0.848-2.88c-1.125,0.328-1.909,1.259-2.106,2.338
		c-1.568,6.583-4.833,12.252-9.154,16.24c-4.138,3.808-9.256,6.065-14.779,6.065c-5.526,0-10.651-2.26-14.784-6.071
		c-4.362-4.015-7.633-9.737-9.187-16.388l-2.919,0.682l2.925-0.684c-0.265-1.096-1.091-1.909-2.097-2.202
		c-0.262-0.167-0.666-0.8-1.137-1.771c-0.728-1.482-1.314-3.464-1.62-5.702c-0.306-2.234-0.267-4.296,0.049-5.892
		c0.213-1.053,0.405-1.708,0.538-1.783c1.45-0.791,1.985-2.605,1.193-4.058c-0.786-1.45-2.604-1.988-4.054-1.195
		c-1.773,0.97-3.004,3.101-3.559,5.884c-0.432,2.183-0.496,4.925-0.102,7.838c0.393,2.874,1.184,5.503,2.186,7.532
		c0.846,1.718,1.898,3.091,3.075,3.978c1.945,7.293,5.713,13.614,10.65,18.168c5.223,4.812,11.746,7.664,18.846,7.664
		c7.091,0,13.616-2.851,18.834-7.659c4.932-4.545,8.695-10.851,10.639-18.128c1.198-0.876,2.264-2.245,3.107-3.968
		c1.006-2.03,1.805-4.678,2.199-7.585c0.306-2.313,0.325-4.504,0.108-6.383C274.301,138.478,273.709,136.609,272.847,135.291z"/>
	<path fill="#38A8DB" d="M207.128,136.725c0.429,1.592,2.076,2.53,3.667,2.096c1.593-0.432,2.535-2.075,2.099-3.669
		c-0.271-0.994-0.567-1.82-0.888-2.716c-1.594-4.467-3.961-11.101,4.419-15.968c3.808-2.212,5.213-5.007,6.51-7.59
		c0.787-1.568,1.51-3.012,2.896-3.665c4.72-2.232,12.162-2.078,19.438-0.454c7.811,1.745,15.238,5.143,18.824,9.088
		c2.146,2.353,3.704,5.388,4.315,9.239c0.582,3.599,0.351,7.932-0.977,13.105c-0.404,1.606,0.562,3.238,2.17,3.647
		c1.604,0.408,3.235-0.563,3.646-2.17c1.528-5.984,1.775-11.125,1.07-15.522c-0.819-5.108-2.91-9.168-5.791-12.333
		c-4.399-4.838-13.055-8.898-21.968-10.894c-8.446-1.887-17.31-1.952-23.287,0.873c-3.235,1.531-4.414,3.874-5.687,6.409
		c-0.902,1.805-1.885,3.763-4.16,5.086c-12.703,7.374-9.339,16.812-7.075,23.164C206.684,135.382,206.992,136.235,207.128,136.725z"
		/>
	<path fill="#38A8DB" d="M207.441,134.389c-0.854,1.419-0.397,3.263,1.013,4.116c1.421,0.854,3.268,0.397,4.124-1.022
		c0.021-0.036,7.94-13.076,11.556-15.119c0.032-0.015-0.064-0.104-0.025-0.068c1.584,1.427,4.171,3.758,11.99,4.301
		c2.264,0.157,4.947,0.157,7.761,0.154c10.496-0.005,23.113-0.01,23.453,10.222c0.049,1.651,1.431,2.947,3.088,2.894
		c1.646-0.053,2.944-1.434,2.895-3.083c-0.542-16.028-16.306-16.021-29.434-16.016c-2.608,0.002-5.104,0.002-7.363-0.154
		c-5.736-0.396-7.376-1.87-8.38-2.775c-2.086-1.878-3.126-2.817-6.907-0.682C216.198,119.988,207.468,134.346,207.441,134.389z"/>
	<path fill="#38A8DB" d="M235.769,260.766c-5.968-8.708-11.576-17.368-15.934-28.787c-4.343-11.398-7.386-25.471-8.214-44.969
		l5.978-0.234c0.792,18.729,3.706,32.201,7.842,43.066c4.133,10.833,9.523,19.156,15.27,27.548L235.769,260.766z"/>
	<path fill="#38A8DB" d="M223.233,181.508l-4.451,7.795l9.788,13.642l5.837-9.914L223.233,181.508L223.233,181.508z
		 M212.627,188.007l7.384-12.923l1.973-3.467l2.776,2.853l15.526,16.022l1.593,1.635l-1.154,1.962l-9.321,15.837l-2.328,3.96
		l-2.678-3.728l-13.591-18.934l-1.127-1.565L212.627,188.007z"/>
	<path fill="#38A8DB" d="M258.607,175.086l7.373,12.923l0.947,1.659l-1.114,1.565l-13.598,18.934l-2.674,3.728l-2.333-3.96
		l-9.315-15.837l-1.153-1.962l1.588-1.634l15.529-16.023l2.768-2.853L258.607,175.086L258.607,175.086z M259.83,189.303
		l-4.453-7.795l-11.175,11.525l5.838,9.913L259.83,189.303z"/>
	<path fill="#38A8DB" d="M249.089,206.406l-3.102,3.87l3.944,12.501l0.119,1.164l-2.669,29.986l-5.949-0.521l2.606-29.368
		l-4.261-13.475l-0.479-1.522l1.001-1.26l4.113-5.126L249.089,206.406L249.089,206.406z M231.088,253.483l-2.886-29.405l0.114-1.16
		l4.078-13.444l-2.466-3.069l4.668-3.75l3.45,4.297l0.986,1.235l-0.461,1.51l-4.362,14.382l2.831,28.822L231.088,253.483z"/>
	<path fill="#38A8DB" d="M238.189,257.39c5.736-8.378,11.008-16.696,15.013-27.517c4.024-10.879,6.815-24.358,7.615-43.107
		l5.978,0.234c-0.829,19.479-3.749,33.547-7.966,44.936c-4.231,11.445-9.726,20.115-15.697,28.833L238.189,257.39z"/>
	<path fill="#38A8DB" d="M201.007,232.627c0.888-1.388,0.479-3.241-0.915-4.128c-1.391-0.886-3.238-0.478-4.131,0.914
		c-0.012,0.026-5.144,7.748-2.658,30.093c0.178,1.647,1.662,2.833,3.31,2.652c1.645-0.186,2.831-1.662,2.648-3.311
		C197.007,238.607,200.995,232.644,201.007,232.627z"/>
	<path fill="#38A8DB" d="M283.056,229.413c-0.888-1.392-2.737-1.8-4.128-0.914c-1.391,0.887-1.801,2.737-0.918,4.128
		c0.016,0.014,4.005,5.98,1.746,26.221c-0.178,1.648,1.012,3.125,2.648,3.311c1.647,0.181,3.132-1.005,3.314-2.652
		C288.205,237.161,283.07,229.441,283.056,229.413z"/>
</g>
<path fill-rule="evenodd" clip-rule="evenodd" fill="#424546" d="M244.524,318.437c-9.385-0.647-17.046-1.339-18.385,3.642
	c1.77,1.238,20.939,4.438,23.422-1.021C248.043,318.475,248.433,318.706,244.524,318.437L244.524,318.437z M247.685,310.153
	c13.982,0,15.339,22.186-1.023,22.186c-15.715,0-30.62,3.114-29.442-12.227C218.207,307.25,231.3,310.153,247.685,310.153
	L247.685,310.153z"/>
<path fill-rule="evenodd" clip-rule="evenodd" fill="#424546" d="M252.205,37.109c-5.727,2.298-22.438,1.877-28.281,0.685
	c-1.397-3.051-1.448-4.484,0.088-7.368c5.363-1.562,15.076-0.918,21.626-0.918C252.206,29.508,252.916,31.215,252.205,37.109
	L252.205,37.109z"/>
<path fill-rule="evenodd" clip-rule="evenodd" fill="#424546" d="M270.558,37.825l-5.067-0.25c-3.348-5.66-1.095-7.782,4.958-6.961
	C272.688,34.809,272.016,33.626,270.558,37.825L270.558,37.825z"/>
<path fill-rule="evenodd" clip-rule="evenodd" fill="#424546" d="M156.956,307.053c-5.331,33.774,10.213,29.721,26.302,29.721
	h111.467c9.344,0.004,18.665,1.186,22.29-5.699c2.829-5.37,2.768-18.325,1.104-24.193
	C310.993,305.299,161.614,305.635,156.956,307.053L156.956,307.053z M331.529,262.456c-3.399-1.027-21.31-1.306-24.564,0.253
	c-5.619,2.69-5.856,14.879,0.508,16.914c3.571,1.142,22.399,1.291,25.363-0.206C337.211,277.207,339.018,264.72,331.529,262.456
	L331.529,262.456z M330.274,230.841c-4.384-1.16-26.498-0.974-32.323-0.512c-13.22,1.047-10.604,17.12-2.901,18.645
	c4.459,0.882,27.622,0.431,33.479,0.238c6.108-0.199,7.497-2.058,7.808-8.041C336.689,234.359,335.798,232.302,330.274,230.841
	L330.274,230.841z M336.264,207.524c0-11.194-11.337-7.747-35.402-7.747c-12.251,0-11.389,18.303,1.023,18.303
	C331.285,218.08,336.264,221.154,336.264,207.524L336.264,207.524z M336.264,174.794c0-4.051-3.182-6.627-7.791-6.627
	c-13.075,0-25.49-2.558-25.49,7.649c0,12.148,5.397,10.685,16.347,10.846C334.906,186.892,336.264,187.708,336.264,174.794
	L336.264,174.794z M147.568,184.24c0.297-0.82,0.897-24.485-0.105-26.815c-3.751,0.866-3.613,2.335-5.253,5.95
	c-3.617,7.976-2.85,8.659-2.907,17.624C139.208,196.346,147.233,185.172,147.568,184.24L147.568,184.24z M168.94,23.962
	c-8.851,0-13.842,7.006-12.655,15.286c0.795,5.546,3.676,4.243,9.539,4.156l128.9-0.028c13.869,0,23.323,2.32,24.281-3.851
	c1.421-9.146-4.286-15.563-13.031-15.563H168.94L168.94,23.962z M318.517,52.658c-8.923-1.104-138.491-0.413-158.78-0.413
	c-5.241,0-3.181,14.462-3.181,24.519c0,67.768,0.88,143.791-0.021,210.557c-0.065,4.862-1.434,10.076,3.201,10.076
	c20.345,0.005,149.834,0.97,158.772-0.462c2.162-12.698-5.687-5.415-14.846-9.31c-15.122-6.43-8.253-22.801-6.481-29.363
	c-10.406-1.544-16.938-6.227-16.938-18.007c0-9.246,2.635-11.919,8.253-17.041c-3.031-6.824-7.021-10.105-3.93-20.715
	c2.91-9.982,6.708-8.054,12.805-12.585c-2.187-5.623-3.267-6.705-3.267-14.097c0-16.642,16.102-16.534,26.188-16.527
	c14.587,0.011,24.84,0.937,24.84,17.551c0,12.384-3.381,11.924-5.394,16.365c2.604,5.25,5.394,4.975,5.394,14.32
	c0,14.127-4.938,12.874-5.337,16.365c1.917,6.864,5.387,4.708,5.29,16.376c-0.079,10.233-2.845,9.24-5.425,15.33
	c1.654,3.623,3.936,4.64,4.967,9.372c5.095,23.384-13.849,22.842-16.08,25.483c-5.789,6.859,10.845,55.202-22.573,55.202h-42.952
	c-6.56,0-7.441-1.219-12.382,1.914c-3.096,1.962-5.502,3.773-8.487,5.812c-5.627,3.846-11.539,7.752-17.294,11.312
	c-6.583,4.071-10.908,7.296-17.368,11.31c-4.107,2.552-13.641,11.189-17.7,8.343c-0.312-0.222-5.188-2.34-0.33-6.894
	c4.022-3.769,44.385-27.147,45.515-31.41c-38.448-6.21-87.559,13.861-87.292-23.961l0.025-109.439
	c-0.018-11.735,1.557-16.636-4.587-14.743c-10.094,3.107,4.389,21.54-11.306,18.189c-1.365-5.613-1.568-43.67,0.01-49.799
	c6.298-24.444,18.6-12.728,15.662-61.906c-4.372,0.76-8.964,7.149-11.519,9.822l-29.537,31.81
	c-7.39,10.91-5.964,20.151-7.109,34.903c-0.939,12.119-1.744,25.153-2.999,37.859c-1.187,12.016-2.132,27.209-2.875,39.015
	c-1.932,30.67,0.999,47.989-15.148,67.722c-2.557,3.125-7.743,6.693-11.208,9.27c-5.722,4.257-5.409,6.698-12.586,3.562
	c-0.114-7.673,5.236-8.688,9.887-12.396c16.66-13.283,18.287-24.69,19.428-46.922c0.866-16.862,6.243-108.696,9.017-123.172
	c2.68-13.985,10.653-19.191,17.134-26.729l21.225-22.775c19.247-20.582,16.486-11.364,16.486-25.65V37.737
	c0-13.895,8.966-22.649,21.255-22.649h137.035c12.248,0,21.413,8.517,21.413,20.604v105.35c0,3.445-0.656,5.005-1.981,7.316
	l-4.926-0.396C317.212,141.445,319.517,69.39,318.517,52.658L318.517,52.658z"/>
<path fill-rule="evenodd" clip-rule="evenodd" fill="#FFFFFF" d="M331.529,262.05c-3.399-1.027-21.31-1.306-24.564,0.253
	c-5.619,2.69-5.856,14.879,0.508,16.914c3.571,1.142,22.399,1.291,25.363-0.206C337.211,276.801,339.018,264.313,331.529,262.05
	L331.529,262.05z"/>
<path fill-rule="evenodd" clip-rule="evenodd" fill="#FFFFFF" d="M330.274,230.435c-4.384-1.16-26.498-0.974-32.323-0.512
	c-13.22,1.047-10.604,17.12-2.901,18.645c4.459,0.882,27.622,0.431,33.479,0.238c6.108-0.199,7.497-2.058,7.808-8.041
	C336.689,233.953,335.798,231.896,330.274,230.435L330.274,230.435z"/>
<path fill-rule="evenodd" clip-rule="evenodd" fill="#FFFFFF" d="M336.264,207.118c0-11.194-11.337-7.747-35.402-7.747
	c-12.251,0-11.389,18.303,1.023,18.303C331.285,217.674,336.264,220.748,336.264,207.118L336.264,207.118z"/>
<path fill-rule="evenodd" clip-rule="evenodd" fill="#FFFFFF" d="M336.264,174.389c0-4.052-3.182-6.628-7.791-6.628
	c-13.075,0-25.49-2.558-25.49,7.649c0,12.148,5.397,10.685,16.347,10.846C334.906,186.485,336.264,187.303,336.264,174.389
	L336.264,174.389z"/>
</svg>
